<svg width="578" height="729" viewBox="0 0 578 729" fill="none" xmlns="http://www.w3.org/2000/svg">
<mask id="mask0_25_5" style="mask-type:alpha" maskUnits="userSpaceOnUse" x="0" y="0" width="578" height="729">
<rect width="578" height="729" fill="white"/>
</mask>
<g mask="url(#mask0_25_5)">
<path d="M22.0962 0.5H107.7C117.121 0.500315 121.766 11.9554 115.006 18.5176C114.595 18.9172 114.151 19.2823 113.679 19.6094L112.679 20.3037C109.018 22.8436 104.752 24.3713 100.311 24.7334L87.9009 25.7461H66.2114C57.636 25.7461 49.2258 28.1074 41.9038 32.5713C39.5433 34.0104 37.3159 35.657 35.2466 37.4902L30.1294 42.0234C29.4186 42.6532 28.7673 43.3475 28.1851 44.0977C19.8169 54.8786 2.54248 48.9611 2.54248 35.3135V20.0537C2.54248 9.42338 11.0255 0.774441 21.5913 0.506836L22.0962 0.5Z" stroke="white"/>
<path d="M98.4058 76.1299H12.8022C3.38141 76.1296 -1.26399 64.6745 5.49561 58.1123C5.90728 57.7127 6.35137 57.3476 6.82275 57.0205L7.82275 56.3262C11.4835 53.7863 15.7501 52.2586 20.1909 51.8965L32.6011 50.8838H54.2905C62.866 50.8838 71.2762 48.5225 78.5981 44.0586C80.9586 42.6195 83.1861 40.9729 85.2554 39.1396L90.3726 34.6064C91.0834 33.9767 91.7346 33.2824 92.3169 32.5322C100.685 21.7513 117.959 27.6688 117.959 41.3164V56.5762C117.959 67.2065 109.476 75.8554 98.9106 76.123L98.4058 76.1299Z" stroke="white"/>
<path d="M171.192 0.5H256.795C266.216 0.500315 270.862 11.9554 264.102 18.5176C263.69 18.9172 263.246 19.2823 262.775 19.6094L261.775 20.3037C258.114 22.8436 253.848 24.3713 249.407 24.7334L236.997 25.7461H215.307C206.732 25.7461 198.321 28.1074 191 32.5713C188.639 34.0104 186.412 35.657 184.342 37.4902L179.225 42.0234C178.514 42.6532 177.863 43.3475 177.281 44.0977C168.913 54.8786 151.638 48.9611 151.638 35.3135V20.0537C151.638 9.42338 160.121 0.774441 170.687 0.506836L171.192 0.5Z" stroke="white"/>
<path d="M247.501 76.1299H161.898C152.477 76.1296 147.831 64.6745 154.591 58.1123C155.003 57.7127 155.447 57.3476 155.918 57.0205L156.918 56.3262C160.579 53.7863 164.846 52.2586 169.286 51.8965L181.697 50.8838H203.386C211.961 50.8838 220.372 48.5225 227.694 44.0586C230.054 42.6195 232.282 40.9729 234.351 39.1396L239.468 34.6064C240.179 33.9767 240.83 33.2824 241.412 32.5322C249.781 21.7513 267.055 27.6688 267.055 41.3164V56.5762C267.055 67.2065 258.572 75.8554 248.006 76.123L247.501 76.1299Z" stroke="white"/>
<path d="M320.287 0.5H405.891C415.311 0.500315 419.957 11.9554 413.197 18.5176C412.786 18.9172 412.342 19.2823 411.87 19.6094L410.87 20.3037C407.209 22.8436 402.943 24.3713 398.502 24.7334L386.092 25.7461H364.402C355.827 25.7461 347.417 28.1074 340.095 32.5713C337.734 34.0104 335.507 35.657 333.438 37.4902L328.32 42.0234C327.61 42.6532 326.958 43.3475 326.376 44.0977C318.008 54.8786 300.733 48.9611 300.733 35.3135V20.0537C300.733 9.42338 309.216 0.774441 319.782 0.506836L320.287 0.5Z" stroke="white"/>
<path d="M396.597 76.1299H310.993C301.572 76.1296 296.927 64.6745 303.687 58.1123C304.098 57.7127 304.542 57.3476 305.014 57.0205L306.014 56.3262C309.674 53.7863 313.941 52.2586 318.382 51.8965L330.792 50.8838H352.481C361.057 50.8838 369.467 48.5225 376.789 44.0586C379.15 42.6195 381.377 40.9729 383.446 39.1396L388.563 34.6064C389.274 33.9767 389.926 33.2824 390.508 32.5322C398.876 21.7513 416.15 27.6688 416.15 41.3164V56.5762C416.15 67.2065 407.667 75.8554 397.102 76.123L396.597 76.1299Z" stroke="white"/>
<path d="M469.383 0.5H554.986C564.407 0.500315 569.052 11.9554 562.293 18.5176C561.881 18.9172 561.437 19.2823 560.966 19.6094L559.966 20.3037C556.305 22.8436 552.038 24.3713 547.597 24.7334L535.187 25.7461H513.498C504.922 25.7461 496.512 28.1074 489.19 32.5713C486.83 34.0104 484.602 35.657 482.533 37.4902L477.416 42.0234C476.705 42.6532 476.054 43.3475 475.471 44.0977C467.103 54.8786 449.829 48.9611 449.829 35.3135V20.0537C449.829 9.42338 458.312 0.774441 468.878 0.506836L469.383 0.5Z" stroke="white"/>
<path d="M545.692 76.1299H460.089C450.668 76.1296 446.022 64.6745 452.782 58.1123C453.194 57.7127 453.638 57.3476 454.109 57.0205L455.109 56.3262C458.77 53.7863 463.036 52.2586 467.477 51.8965L479.887 50.8838H501.577C510.152 50.8838 518.563 48.5225 525.885 44.0586C528.245 42.6195 530.472 40.9729 532.542 39.1396L537.659 34.6064C538.37 33.9767 539.021 33.2824 539.603 32.5322C547.971 21.7513 565.246 27.6688 565.246 41.3164V56.5762C565.246 67.2065 556.763 75.8554 546.197 76.123L545.692 76.1299Z" stroke="white"/>
<path d="M22.0962 89.9016H107.7C117.121 89.9019 121.766 101.357 115.006 107.919C114.595 108.319 114.151 108.684 113.679 109.011L112.679 109.705C109.018 112.245 104.752 113.773 100.311 114.135L87.9009 115.148H66.2114C57.636 115.148 49.2258 117.509 41.9038 121.973C39.5433 123.412 37.3159 125.059 35.2466 126.892L30.1294 131.425C29.4186 132.055 28.7673 132.749 28.1851 133.499C19.8169 144.28 2.54248 138.363 2.54248 124.715V109.455C2.54248 98.825 11.0255 90.1761 21.5913 89.9084L22.0962 89.9016Z" stroke="white"/>
<path d="M98.4058 165.532H12.8022C3.38141 165.531 -1.26399 154.076 5.49561 147.514C5.90728 147.115 6.35137 146.749 6.82275 146.422L7.82275 145.728C11.4835 143.188 15.7501 141.66 20.1909 141.298L32.6011 140.286H54.2905C62.866 140.286 71.2762 137.924 78.5981 133.46C80.9586 132.021 83.1861 130.375 85.2554 128.542L90.3726 124.008C91.0834 123.379 91.7346 122.684 92.3169 121.934C100.685 111.153 117.959 117.071 117.959 130.718V145.978C117.959 156.608 109.476 165.257 98.9106 165.525L98.4058 165.532Z" stroke="white"/>
<path d="M171.192 89.9016H256.795C266.216 89.9019 270.862 101.357 264.102 107.919C263.69 108.319 263.246 108.684 262.775 109.011L261.775 109.705C258.114 112.245 253.848 113.773 249.407 114.135L236.997 115.148H215.307C206.732 115.148 198.321 117.509 191 121.973C188.639 123.412 186.412 125.059 184.342 126.892L179.225 131.425C178.514 132.055 177.863 132.749 177.281 133.499C168.913 144.28 151.638 138.363 151.638 124.715V109.455C151.638 98.825 160.121 90.1761 170.687 89.9084L171.192 89.9016Z" stroke="white"/>
<path d="M247.501 165.532H161.898C152.477 165.531 147.831 154.076 154.591 147.514C155.003 147.115 155.447 146.749 155.918 146.422L156.918 145.728C160.579 143.188 164.846 141.66 169.286 141.298L181.697 140.286H203.386C211.961 140.286 220.372 137.924 227.694 133.46C230.054 132.021 232.282 130.375 234.351 128.542L239.468 124.008C240.179 123.379 240.83 122.684 241.412 121.934C249.781 111.153 267.055 117.071 267.055 130.718V145.978C267.055 156.608 258.572 165.257 248.006 165.525L247.501 165.532Z" stroke="white"/>
<path d="M320.287 89.9016H405.891C415.311 89.9019 419.957 101.357 413.197 107.919C412.786 108.319 412.342 108.684 411.87 109.011L410.87 109.705C407.209 112.245 402.943 113.773 398.502 114.135L386.092 115.148H364.402C355.827 115.148 347.417 117.509 340.095 121.973C337.734 123.412 335.507 125.059 333.438 126.892L328.32 131.425C327.61 132.055 326.958 132.749 326.376 133.499C318.008 144.28 300.733 138.363 300.733 124.715V109.455C300.733 98.825 309.216 90.1761 319.782 89.9084L320.287 89.9016Z" stroke="white"/>
<path d="M396.597 165.532H310.993C301.572 165.531 296.927 154.076 303.687 147.514C304.098 147.115 304.542 146.749 305.014 146.422L306.014 145.728C309.674 143.188 313.941 141.66 318.382 141.298L330.792 140.286H352.481C361.057 140.286 369.467 137.924 376.789 133.46C379.15 132.021 381.377 130.375 383.446 128.542L388.563 124.008C389.274 123.379 389.926 122.684 390.508 121.934C398.876 111.153 416.15 117.071 416.15 130.718V145.978C416.15 156.608 407.667 165.257 397.102 165.525L396.597 165.532Z" stroke="white"/>
<path d="M469.383 89.9016H554.986C564.407 89.9019 569.052 101.357 562.293 107.919C561.881 108.319 561.437 108.684 560.966 109.011L559.966 109.705C556.305 112.245 552.038 113.773 547.597 114.135L535.187 115.148H513.498C504.922 115.148 496.512 117.509 489.19 121.973C486.83 123.412 484.602 125.059 482.533 126.892L477.416 131.425C476.705 132.055 476.054 132.749 475.471 133.499C467.103 144.28 449.829 138.363 449.829 124.715V109.455C449.829 98.825 458.312 90.1761 468.878 89.9084L469.383 89.9016Z" stroke="white"/>
<path d="M545.692 165.532H460.089C450.668 165.531 446.022 154.076 452.782 147.514C453.194 147.115 453.638 146.749 454.109 146.422L455.109 145.728C458.77 143.188 463.036 141.66 467.477 141.298L479.887 140.286H501.577C510.152 140.286 518.563 137.924 525.885 133.46C528.245 132.021 530.472 130.375 532.542 128.542L537.659 124.008C538.37 123.379 539.021 122.684 539.603 121.934C547.971 111.153 565.246 117.071 565.246 130.718V145.978C565.246 156.608 556.763 165.257 546.197 165.525L545.692 165.532Z" stroke="white"/>
<path d="M22.0962 180.286H107.7C117.121 180.286 121.766 191.741 115.006 198.303C114.595 198.703 114.151 199.068 113.679 199.395L112.679 200.089C109.018 202.629 104.752 204.157 100.311 204.519L87.9009 205.532H66.2114C57.636 205.532 49.2258 207.893 41.9038 212.357C39.5433 213.796 37.3159 215.443 35.2466 217.276L30.1294 221.809C29.4186 222.439 28.7673 223.133 28.1851 223.883C19.8169 234.664 2.54248 228.747 2.54248 215.099V199.839C2.54248 189.209 11.0255 180.56 21.5913 180.292L22.0962 180.286Z" stroke="white"/>
<path d="M98.4058 255.916H12.8022C3.38141 255.915 -1.26399 244.46 5.49561 237.898C5.90728 237.498 6.35137 237.133 6.82275 236.806L7.82275 236.112C11.4835 233.572 15.7501 232.044 20.1909 231.682L32.6011 230.669H54.2905C62.866 230.669 71.2762 228.308 78.5981 223.844C80.9586 222.405 83.1861 220.759 85.2554 218.925L90.3726 214.392C91.0834 213.762 91.7346 213.068 92.3169 212.318C100.685 201.537 117.959 207.454 117.959 221.102V236.362C117.959 246.992 109.476 255.641 98.9106 255.909L98.4058 255.916Z" stroke="white"/>
<path d="M171.192 180.286H256.795C266.216 180.286 270.862 191.741 264.102 198.303C263.69 198.703 263.246 199.068 262.775 199.395L261.775 200.089C258.114 202.629 253.848 204.157 249.407 204.519L236.997 205.532H215.307C206.732 205.532 198.321 207.893 191 212.357C188.639 213.796 186.412 215.443 184.342 217.276L179.225 221.809C178.514 222.439 177.863 223.133 177.281 223.883C168.913 234.664 151.638 228.747 151.638 215.099V199.839C151.638 189.209 160.121 180.56 170.687 180.292L171.192 180.286Z" stroke="white"/>
<path d="M247.501 255.916H161.898C152.477 255.915 147.831 244.46 154.591 237.898C155.003 237.498 155.447 237.133 155.918 236.806L156.918 236.112C160.579 233.572 164.846 232.044 169.286 231.682L181.697 230.669H203.386C211.961 230.669 220.372 228.308 227.694 223.844C230.054 222.405 232.282 220.759 234.351 218.925L239.468 214.392C240.179 213.762 240.83 213.068 241.412 212.318C249.781 201.537 267.055 207.454 267.055 221.102V236.362C267.055 246.992 258.572 255.641 248.006 255.909L247.501 255.916Z" stroke="white"/>
<path d="M320.287 180.286H405.891C415.311 180.286 419.957 191.741 413.197 198.303C412.786 198.703 412.342 199.068 411.87 199.395L410.87 200.089C407.209 202.629 402.943 204.157 398.502 204.519L386.092 205.532H364.402C355.827 205.532 347.417 207.893 340.095 212.357C337.734 213.796 335.507 215.443 333.438 217.276L328.32 221.809C327.61 222.439 326.958 223.133 326.376 223.883C318.008 234.664 300.733 228.747 300.733 215.099V199.839C300.733 189.209 309.216 180.56 319.782 180.292L320.287 180.286Z" stroke="white"/>
<path d="M396.597 255.916H310.993C301.572 255.915 296.927 244.46 303.687 237.898C304.098 237.498 304.542 237.133 305.014 236.806L306.014 236.112C309.674 233.572 313.941 232.044 318.382 231.682L330.792 230.669H352.481C361.057 230.669 369.467 228.308 376.789 223.844C379.15 222.405 381.377 220.759 383.446 218.925L388.563 214.392C389.274 213.762 389.926 213.068 390.508 212.318C398.876 201.537 416.15 207.454 416.15 221.102V236.362C416.15 246.992 407.667 255.641 397.102 255.909L396.597 255.916Z" stroke="white"/>
<path d="M469.383 180.286H554.986C564.407 180.286 569.052 191.741 562.293 198.303C561.881 198.703 561.437 199.068 560.966 199.395L559.966 200.089C556.305 202.629 552.038 204.157 547.597 204.519L535.187 205.532H513.498C504.922 205.532 496.512 207.893 489.19 212.357C486.83 213.796 484.602 215.443 482.533 217.276L477.416 221.809C476.705 222.439 476.054 223.133 475.471 223.883C467.103 234.664 449.829 228.747 449.829 215.099V199.839C449.829 189.209 458.312 180.56 468.878 180.292L469.383 180.286Z" stroke="white"/>
<path d="M545.692 255.916H460.089C450.668 255.915 446.022 244.46 452.782 237.898C453.194 237.498 453.638 237.133 454.109 236.806L455.109 236.112C458.77 233.572 463.036 232.044 467.477 231.682L479.887 230.669H501.577C510.152 230.669 518.563 228.308 525.885 223.844C528.245 222.405 530.472 220.759 532.542 218.925L537.659 214.392C538.37 213.762 539.021 213.068 539.603 212.318C547.971 201.537 565.246 207.454 565.246 221.102V236.362C565.246 246.992 556.763 255.641 546.197 255.909L545.692 255.916Z" stroke="white"/>
<path d="M22.0962 270.67H107.7C117.121 270.67 121.766 282.125 115.006 288.687C114.595 289.087 114.151 289.452 113.679 289.779L112.679 290.473C109.018 293.013 104.752 294.541 100.311 294.903L87.9009 295.916H66.2114C57.636 295.916 49.2258 298.277 41.9038 302.741C39.5433 304.18 37.3159 305.827 35.2466 307.66L30.1294 312.193C29.4186 312.823 28.7673 313.517 28.1851 314.267C19.8169 325.048 2.54248 319.131 2.54248 305.483V290.223C2.54248 279.593 11.0255 270.944 21.5913 270.677L22.0962 270.67Z" stroke="white"/>
<path d="M98.4058 346.3H12.8022C3.38141 346.299 -1.26399 334.844 5.49561 328.282C5.90728 327.883 6.35137 327.517 6.82275 327.19L7.82275 326.496C11.4835 323.956 15.7501 322.429 20.1909 322.066L32.6011 321.054H54.2905C62.866 321.054 71.2762 318.692 78.5981 314.229C80.9586 312.789 83.1861 311.143 85.2554 309.31L90.3726 304.776C91.0834 304.147 91.7346 303.452 92.3169 302.702C100.685 291.921 117.959 297.839 117.959 311.486V326.746C117.959 337.376 109.476 346.025 98.9106 346.293L98.4058 346.3Z" stroke="white"/>
<path d="M171.192 270.67H256.795C266.216 270.67 270.862 282.125 264.102 288.687C263.69 289.087 263.246 289.452 262.775 289.779L261.775 290.473C258.114 293.013 253.848 294.541 249.407 294.903L236.997 295.916H215.307C206.732 295.916 198.321 298.277 191 302.741C188.639 304.18 186.412 305.827 184.342 307.66L179.225 312.193C178.514 312.823 177.863 313.517 177.281 314.267C168.913 325.048 151.638 319.131 151.638 305.483V290.223C151.638 279.593 160.121 270.944 170.687 270.677L171.192 270.67Z" stroke="white"/>
<path d="M247.501 346.3H161.898C152.477 346.299 147.831 334.844 154.591 328.282C155.003 327.883 155.447 327.517 155.918 327.19L156.918 326.496C160.579 323.956 164.846 322.429 169.286 322.066L181.697 321.054H203.386C211.961 321.054 220.372 318.692 227.694 314.229C230.054 312.789 232.282 311.143 234.351 309.31L239.468 304.776C240.179 304.147 240.83 303.452 241.412 302.702C249.781 291.921 267.055 297.839 267.055 311.486V326.746C267.055 337.376 258.572 346.025 248.006 346.293L247.501 346.3Z" stroke="white"/>
<path d="M320.287 270.67H405.891C415.311 270.67 419.957 282.125 413.197 288.687C412.786 289.087 412.342 289.452 411.87 289.779L410.87 290.473C407.209 293.013 402.943 294.541 398.502 294.903L386.092 295.916H364.402C355.827 295.916 347.417 298.277 340.095 302.741C337.734 304.18 335.507 305.827 333.438 307.66L328.32 312.193C327.61 312.823 326.958 313.517 326.376 314.267C318.008 325.048 300.733 319.131 300.733 305.483V290.223C300.733 279.593 309.216 270.944 319.782 270.677L320.287 270.67Z" stroke="white"/>
<path d="M396.597 346.3H310.993C301.572 346.299 296.927 334.844 303.687 328.282C304.098 327.883 304.542 327.517 305.014 327.19L306.014 326.496C309.674 323.956 313.941 322.429 318.382 322.066L330.792 321.054H352.481C361.057 321.054 369.467 318.692 376.789 314.229C379.15 312.789 381.377 311.143 383.446 309.31L388.563 304.776C389.274 304.147 389.926 303.452 390.508 302.702C398.876 291.921 416.15 297.839 416.15 311.486V326.746C416.15 337.376 407.667 346.025 397.102 346.293L396.597 346.3Z" stroke="white"/>
<path d="M469.383 270.67H554.986C564.407 270.67 569.052 282.125 562.293 288.687C561.881 289.087 561.437 289.452 560.966 289.779L559.966 290.473C556.305 293.013 552.038 294.541 547.597 294.903L535.187 295.916H513.498C504.922 295.916 496.512 298.277 489.19 302.741C486.83 304.18 484.602 305.827 482.533 307.66L477.416 312.193C476.705 312.823 476.054 313.517 475.471 314.267C467.103 325.048 449.829 319.131 449.829 305.483V290.223C449.829 279.593 458.312 270.944 468.878 270.677L469.383 270.67Z" stroke="white"/>
<path d="M545.692 346.3H460.089C450.668 346.299 446.022 334.844 452.782 328.282C453.194 327.883 453.638 327.517 454.109 327.19L455.109 326.496C458.77 323.956 463.036 322.429 467.477 322.066L479.887 321.054H501.577C510.152 321.054 518.563 318.692 525.885 314.229C528.245 312.789 530.472 311.143 532.542 309.31L537.659 304.776C538.37 304.147 539.021 303.452 539.603 302.702C547.971 291.921 565.246 297.839 565.246 311.486V326.746C565.246 337.376 556.763 346.025 546.197 346.293L545.692 346.3Z" stroke="white"/>
<path d="M22.0962 361.054H107.7C117.121 361.054 121.766 372.509 115.006 379.071C114.595 379.471 114.151 379.836 113.679 380.163L112.679 380.857C109.018 383.397 104.752 384.925 100.311 385.287L87.9009 386.3H66.2114C57.636 386.3 49.2258 388.661 41.9038 393.125C39.5433 394.564 37.3159 396.211 35.2466 398.044L30.1294 402.577C29.4186 403.207 28.7673 403.901 28.1851 404.651C19.8169 415.432 2.54248 409.515 2.54248 395.867V380.607C2.54248 369.977 11.0255 361.328 21.5913 361.061L22.0962 361.054Z" stroke="white"/>
<path d="M98.4058 436.684H12.8022C3.38141 436.683 -1.26399 425.228 5.49561 418.666C5.90728 418.267 6.35137 417.901 6.82275 417.574L7.82275 416.88C11.4835 414.34 15.7501 412.812 20.1909 412.45L32.6011 411.438H54.2905C62.866 411.438 71.2762 409.076 78.5981 404.612C80.9586 403.173 83.1861 401.527 85.2554 399.693L90.3726 395.16C91.0834 394.531 91.7346 393.836 92.3169 393.086C100.685 382.305 117.959 388.223 117.959 401.87V417.13C117.959 427.76 109.476 436.409 98.9106 436.677L98.4058 436.684Z" stroke="white"/>
<path d="M171.192 361.054H256.795C266.216 361.054 270.862 372.509 264.102 379.071C263.69 379.471 263.246 379.836 262.775 380.163L261.775 380.857C258.114 383.397 253.848 384.925 249.407 385.287L236.997 386.3H215.307C206.732 386.3 198.321 388.661 191 393.125C188.639 394.564 186.412 396.211 184.342 398.044L179.225 402.577C178.514 403.207 177.863 403.901 177.281 404.651C168.913 415.432 151.638 409.515 151.638 395.867V380.607C151.638 369.977 160.121 361.328 170.687 361.061L171.192 361.054Z" stroke="white"/>
<path d="M247.501 436.684H161.898C152.477 436.683 147.831 425.228 154.591 418.666C155.003 418.267 155.447 417.901 155.918 417.574L156.918 416.88C160.579 414.34 164.846 412.812 169.286 412.45L181.697 411.438H203.386C211.961 411.438 220.372 409.076 227.694 404.612C230.054 403.173 232.282 401.527 234.351 399.693L239.468 395.16C240.179 394.531 240.83 393.836 241.412 393.086C249.781 382.305 267.055 388.223 267.055 401.87V417.13C267.055 427.76 258.572 436.409 248.006 436.677L247.501 436.684Z" stroke="white"/>
<path d="M320.287 361.054H405.891C415.311 361.054 419.957 372.509 413.197 379.071C412.786 379.471 412.342 379.836 411.87 380.163L410.87 380.857C407.209 383.397 402.943 384.925 398.502 385.287L386.092 386.3H364.402C355.827 386.3 347.417 388.661 340.095 393.125C337.734 394.564 335.507 396.211 333.438 398.044L328.32 402.577C327.61 403.207 326.958 403.901 326.376 404.651C318.008 415.432 300.733 409.515 300.733 395.867V380.607C300.733 369.977 309.216 361.328 319.782 361.061L320.287 361.054Z" stroke="white"/>
<path d="M396.597 436.684H310.993C301.572 436.683 296.927 425.228 303.687 418.666C304.098 418.267 304.542 417.901 305.014 417.574L306.014 416.88C309.674 414.34 313.941 412.812 318.382 412.45L330.792 411.438H352.481C361.057 411.438 369.467 409.076 376.789 404.612C379.15 403.173 381.377 401.527 383.446 399.693L388.563 395.16C389.274 394.531 389.926 393.836 390.508 393.086C398.876 382.305 416.15 388.223 416.15 401.87V417.13C416.15 427.76 407.667 436.409 397.102 436.677L396.597 436.684Z" stroke="white"/>
<path d="M469.383 361.054H554.986C564.407 361.054 569.052 372.509 562.293 379.071C561.881 379.471 561.437 379.836 560.966 380.163L559.966 380.857C556.305 383.397 552.038 384.925 547.597 385.287L535.187 386.3H513.498C504.922 386.3 496.512 388.661 489.19 393.125C486.83 394.564 484.602 396.211 482.533 398.044L477.416 402.577C476.705 403.207 476.054 403.901 475.471 404.651C467.103 415.432 449.829 409.515 449.829 395.867V380.607C449.829 369.977 458.312 361.328 468.878 361.061L469.383 361.054Z" stroke="white"/>
<path d="M545.692 436.684H460.089C450.668 436.683 446.022 425.228 452.782 418.666C453.194 418.267 453.638 417.901 454.109 417.574L455.109 416.88C458.77 414.34 463.036 412.812 467.477 412.45L479.887 411.438H501.577C510.152 411.438 518.563 409.076 525.885 404.612C528.245 403.173 530.472 401.527 532.542 399.693L537.659 395.16C538.37 394.531 539.021 393.836 539.603 393.086C547.971 382.305 565.246 388.223 565.246 401.87V417.13C565.246 427.76 556.763 436.409 546.197 436.677L545.692 436.684Z" stroke="white"/>
<path d="M22.0962 451.438H107.7C117.121 451.438 121.766 462.893 115.006 469.456C114.595 469.855 114.151 470.22 113.679 470.547L112.679 471.242C109.018 473.782 104.752 475.309 100.311 475.671L87.9009 476.684H66.2114C57.636 476.684 49.2258 479.045 41.9038 483.509C39.5433 484.948 37.3159 486.595 35.2466 488.428L30.1294 492.961C29.4186 493.591 28.7673 494.285 28.1851 495.036C19.8169 505.817 2.54248 499.899 2.54248 486.251V470.992C2.54248 460.361 11.0255 451.712 21.5913 451.445L22.0962 451.438Z" stroke="white"/>
<path d="M98.4058 527.068H12.8022C3.38141 527.068 -1.26399 515.612 5.49561 509.05C5.90728 508.651 6.35137 508.286 6.82275 507.958L7.82275 507.264C11.4835 504.724 15.7501 503.197 20.1909 502.834L32.6011 501.822H54.2905C62.866 501.822 71.2762 499.461 78.5981 494.997C80.9586 493.557 83.1861 491.911 85.2554 490.078L90.3726 485.544C91.0834 484.915 91.7346 484.22 92.3169 483.47C100.685 472.689 117.959 478.607 117.959 492.254V507.514C117.959 518.144 109.476 526.793 98.9106 527.061L98.4058 527.068Z" stroke="white"/>
<path d="M171.192 451.438H256.795C266.216 451.438 270.862 462.893 264.102 469.456C263.69 469.855 263.246 470.22 262.775 470.547L261.775 471.242C258.114 473.782 253.848 475.309 249.407 475.671L236.997 476.684H215.307C206.732 476.684 198.321 479.045 191 483.509C188.639 484.948 186.412 486.595 184.342 488.428L179.225 492.961C178.514 493.591 177.863 494.285 177.281 495.036C168.913 505.817 151.638 499.899 151.638 486.251V470.992C151.638 460.361 160.121 451.712 170.687 451.445L171.192 451.438Z" stroke="white"/>
<path d="M247.501 527.068H161.898C152.477 527.068 147.831 515.612 154.591 509.05C155.003 508.651 155.447 508.286 155.918 507.958L156.918 507.264C160.579 504.724 164.846 503.197 169.286 502.834L181.697 501.822H203.386C211.961 501.822 220.372 499.461 227.694 494.997C230.054 493.557 232.282 491.911 234.351 490.078L239.468 485.544C240.179 484.915 240.83 484.22 241.412 483.47C249.781 472.689 267.055 478.607 267.055 492.254V507.514C267.055 518.144 258.572 526.793 248.006 527.061L247.501 527.068Z" stroke="white"/>
<path d="M320.287 451.438H405.891C415.311 451.438 419.957 462.893 413.197 469.455C412.786 469.855 412.342 470.22 411.87 470.547L410.87 471.242C407.209 473.781 402.943 475.309 398.502 475.671L386.092 476.684H364.402C355.827 476.684 347.417 479.045 340.095 483.509C337.734 484.948 335.507 486.595 333.438 488.428L328.32 492.961C327.61 493.591 326.958 494.285 326.376 495.036C318.008 505.816 300.733 499.899 300.733 486.251V470.992C300.733 460.361 309.216 451.712 319.782 451.445L320.287 451.438Z" stroke="white"/>
<path d="M396.597 527.068H310.993C301.572 527.068 296.927 515.612 303.687 509.05C304.098 508.651 304.542 508.286 305.014 507.958L306.014 507.264C309.674 504.724 313.941 503.197 318.382 502.834L330.792 501.822H352.481C361.057 501.822 369.467 499.461 376.789 494.997C379.15 493.557 381.377 491.911 383.446 490.078L388.563 485.544C389.274 484.915 389.926 484.22 390.508 483.47C398.876 472.689 416.15 478.607 416.15 492.254V507.514C416.15 518.144 407.667 526.793 397.102 527.061L396.597 527.068Z" stroke="white"/>
<path d="M469.383 451.438H554.986C564.407 451.438 569.052 462.893 562.293 469.456C561.881 469.855 561.437 470.22 560.966 470.547L559.966 471.242C556.305 473.782 552.038 475.309 547.597 475.671L535.187 476.684H513.498C504.922 476.684 496.512 479.045 489.19 483.509C486.83 484.948 484.602 486.595 482.533 488.428L477.416 492.961C476.705 493.591 476.054 494.285 475.471 495.036C467.103 505.817 449.829 499.899 449.829 486.251V470.992C449.829 460.361 458.312 451.712 468.878 451.445L469.383 451.438Z" stroke="white"/>
<path d="M545.692 527.068H460.089C450.668 527.068 446.022 515.612 452.782 509.05C453.194 508.651 453.638 508.286 454.109 507.958L455.109 507.264C458.77 504.724 463.036 503.197 467.477 502.834L479.887 501.822H501.577C510.152 501.822 518.563 499.461 525.885 494.997C528.245 493.557 530.472 491.911 532.542 490.078L537.659 485.544C538.37 484.915 539.021 484.22 539.603 483.47C547.971 472.689 565.246 478.607 565.246 492.254V507.514C565.246 518.144 556.763 526.793 546.197 527.061L545.692 527.068Z" stroke="white"/>
<path d="M22.0962 541.822H107.7C117.121 541.822 121.766 553.277 115.006 559.84C114.595 560.239 114.151 560.604 113.679 560.931L112.679 561.626C109.018 564.166 104.752 565.693 100.311 566.055L87.9009 567.068H66.2114C57.636 567.068 49.2258 569.429 41.9038 573.893C39.5433 575.332 37.3159 576.979 35.2466 578.812L30.1294 583.345C29.4186 583.975 28.7673 584.67 28.1851 585.42C19.8169 596.201 2.54248 590.283 2.54248 576.635V561.376C2.54248 550.745 11.0255 542.096 21.5913 541.829L22.0962 541.822Z" stroke="white"/>
<path d="M98.4058 617.452H12.8022C3.38141 617.452 -1.26399 605.997 5.49561 599.434C5.90728 599.035 6.35137 598.67 6.82275 598.343L7.82275 597.648C11.4835 595.108 15.7501 593.581 20.1909 593.219L32.6011 592.206H54.2905C62.866 592.206 71.2762 589.845 78.5981 585.381C80.9586 583.942 83.1861 582.295 85.2554 580.462L90.3726 575.929C91.0834 575.299 91.7346 574.605 92.3169 573.854C100.685 563.073 117.959 568.991 117.959 582.639V597.898C117.959 608.529 109.476 617.178 98.9106 617.445L98.4058 617.452Z" stroke="white"/>
<path d="M171.192 541.822H256.795C266.216 541.822 270.862 553.277 264.102 559.84C263.69 560.239 263.246 560.604 262.775 560.931L261.775 561.626C258.114 564.166 253.848 565.693 249.407 566.055L236.997 567.068H215.307C206.732 567.068 198.321 569.429 191 573.893C188.639 575.332 186.412 576.979 184.342 578.812L179.225 583.345C178.514 583.975 177.863 584.67 177.281 585.42C168.913 596.201 151.638 590.283 151.638 576.635V561.376C151.638 550.745 160.121 542.096 170.687 541.829L171.192 541.822Z" stroke="white"/>
<path d="M247.501 617.452H161.898C152.477 617.452 147.831 605.997 154.591 599.434C155.003 599.035 155.447 598.67 155.918 598.343L156.918 597.648C160.579 595.108 164.846 593.581 169.286 593.219L181.697 592.206H203.386C211.961 592.206 220.372 589.845 227.694 585.381C230.054 583.942 232.282 582.295 234.351 580.462L239.468 575.929C240.179 575.299 240.83 574.605 241.412 573.854C249.781 563.073 267.055 568.991 267.055 582.639V597.898C267.055 608.529 258.572 617.178 248.006 617.445L247.501 617.452Z" stroke="white"/>
<path d="M320.287 541.822H405.891C415.311 541.822 419.957 553.277 413.197 559.84C412.786 560.239 412.342 560.604 411.87 560.931L410.87 561.626C407.209 564.166 402.943 565.693 398.502 566.055L386.092 567.068H364.402C355.827 567.068 347.417 569.429 340.095 573.893C337.734 575.332 335.507 576.979 333.438 578.812L328.32 583.345C327.61 583.975 326.958 584.67 326.376 585.42C318.008 596.201 300.733 590.283 300.733 576.635V561.376C300.733 550.745 309.216 542.096 319.782 541.829L320.287 541.822Z" stroke="white"/>
<path d="M396.597 617.452H310.993C301.572 617.452 296.927 605.997 303.687 599.434C304.098 599.035 304.542 598.67 305.014 598.343L306.014 597.648C309.674 595.108 313.941 593.581 318.382 593.219L330.792 592.206H352.481C361.057 592.206 369.467 589.845 376.789 585.381C379.15 583.942 381.377 582.295 383.446 580.462L388.563 575.929C389.274 575.299 389.926 574.605 390.508 573.854C398.876 563.073 416.15 568.991 416.15 582.639V597.898C416.15 608.529 407.667 617.178 397.102 617.445L396.597 617.452Z" stroke="white"/>
<path d="M469.383 541.822H554.986C564.407 541.822 569.052 553.277 562.293 559.84C561.881 560.239 561.437 560.604 560.966 560.931L559.966 561.626C556.305 564.166 552.038 565.693 547.597 566.055L535.187 567.068H513.498C504.922 567.068 496.512 569.429 489.19 573.893C486.83 575.332 484.602 576.979 482.533 578.812L477.416 583.345C476.705 583.975 476.054 584.67 475.471 585.42C467.103 596.201 449.829 590.283 449.829 576.635V561.376C449.829 550.745 458.312 542.096 468.878 541.829L469.383 541.822Z" stroke="white"/>
<path d="M545.692 617.452H460.089C450.668 617.452 446.022 605.997 452.782 599.434C453.194 599.035 453.638 598.67 454.109 598.343L455.109 597.648C458.77 595.108 463.036 593.581 467.477 593.219L479.887 592.206H501.577C510.152 592.206 518.563 589.845 525.885 585.381C528.245 583.942 530.472 582.295 532.542 580.462L537.659 575.929C538.37 575.299 539.021 574.605 539.603 573.854C547.971 563.073 565.246 568.991 565.246 582.639V597.898C565.246 608.529 556.763 617.178 546.197 617.445L545.692 617.452Z" stroke="white"/>
<path d="M22.0962 632.206H107.7C117.121 632.206 121.766 643.661 115.006 650.224C114.595 650.623 114.151 650.988 113.679 651.315L112.679 652.01C109.018 654.55 104.752 656.077 100.311 656.439L87.9009 657.452H66.2114C57.636 657.452 49.2258 659.813 41.9038 664.277C39.5433 665.716 37.3159 667.363 35.2466 669.196L30.1294 673.729C29.4186 674.359 28.7673 675.054 28.1851 675.804C19.8169 686.585 2.54248 680.667 2.54248 667.02V651.76C2.54248 641.129 11.0255 632.48 21.5913 632.213L22.0962 632.206Z" stroke="white"/>
<path d="M98.4058 707.836H12.8022C3.38141 707.836 -1.26399 696.381 5.49561 689.818C5.90728 689.419 6.35137 689.054 6.82275 688.727L7.82275 688.032C11.4835 685.492 15.7501 683.965 20.1909 683.603L32.6011 682.59H54.2905C62.866 682.59 71.2762 680.229 78.5981 675.765C80.9586 674.326 83.1861 672.679 85.2554 670.846L90.3726 666.313C91.0834 665.683 91.7346 664.989 92.3169 664.238C100.685 653.457 117.959 659.375 117.959 673.023V688.282C117.959 698.913 109.476 707.562 98.9106 707.829L98.4058 707.836Z" stroke="white"/>
<path d="M171.192 632.206H256.795C266.216 632.206 270.862 643.661 264.102 650.224C263.69 650.623 263.246 650.988 262.775 651.315L261.775 652.01C258.114 654.55 253.848 656.077 249.407 656.439L236.997 657.452H215.307C206.732 657.452 198.321 659.813 191 664.277C188.639 665.716 186.412 667.363 184.342 669.196L179.225 673.729C178.514 674.359 177.863 675.054 177.281 675.804C168.913 686.585 151.638 680.667 151.638 667.02V651.76C151.638 641.129 160.121 632.48 170.687 632.213L171.192 632.206Z" stroke="white"/>
<path d="M247.501 707.836H161.898C152.477 707.836 147.831 696.381 154.591 689.818C155.003 689.419 155.447 689.054 155.918 688.727L156.918 688.032C160.579 685.492 164.846 683.965 169.286 683.603L181.697 682.59H203.386C211.961 682.59 220.372 680.229 227.694 675.765C230.054 674.326 232.282 672.679 234.351 670.846L239.468 666.313C240.179 665.683 240.83 664.989 241.412 664.238C249.781 653.457 267.055 659.375 267.055 673.023V688.282C267.055 698.913 258.572 707.562 248.006 707.829L247.501 707.836Z" stroke="white"/>
<path d="M320.287 632.206H405.891C415.311 632.206 419.957 643.661 413.197 650.224C412.786 650.623 412.342 650.988 411.87 651.315L410.87 652.01C407.209 654.55 402.943 656.077 398.502 656.439L386.092 657.452H364.402C355.827 657.452 347.417 659.813 340.095 664.277C337.734 665.716 335.507 667.363 333.438 669.196L328.32 673.729C327.61 674.359 326.958 675.054 326.376 675.804C318.008 686.585 300.733 680.667 300.733 667.02V651.76C300.733 641.129 309.216 632.48 319.782 632.213L320.287 632.206Z" stroke="white"/>
<path d="M396.597 707.836H310.993C301.572 707.836 296.927 696.381 303.687 689.818C304.098 689.419 304.542 689.054 305.014 688.727L306.014 688.032C309.674 685.492 313.941 683.965 318.382 683.603L330.792 682.59H352.481C361.057 682.59 369.467 680.229 376.789 675.765C379.15 674.326 381.377 672.679 383.446 670.846L388.563 666.313C389.274 665.683 389.926 664.989 390.508 664.238C398.876 653.457 416.15 659.375 416.15 673.023V688.282C416.15 698.913 407.667 707.562 397.102 707.829L396.597 707.836Z" stroke="white"/>
<path d="M469.383 632.206H554.986C564.407 632.206 569.052 643.661 562.293 650.224C561.881 650.623 561.437 650.988 560.966 651.315L559.966 652.01C556.305 654.55 552.038 656.077 547.597 656.439L535.187 657.452H513.498C504.922 657.452 496.512 659.813 489.19 664.277C486.83 665.716 484.602 667.363 482.533 669.196L477.416 673.729C476.705 674.359 476.054 675.054 475.471 675.804C467.103 686.585 449.829 680.667 449.829 667.02V651.76C449.829 641.129 458.312 632.48 468.878 632.213L469.383 632.206Z" stroke="white"/>
<path d="M545.692 707.836H460.089C450.668 707.836 446.022 696.381 452.782 689.818C453.194 689.419 453.638 689.054 454.109 688.727L455.109 688.032C458.77 685.492 463.036 683.965 467.477 683.603L479.887 682.59H501.577C510.152 682.59 518.563 680.229 525.885 675.765C528.245 674.326 530.472 672.679 532.542 670.846L537.659 666.313C538.37 665.683 539.021 664.989 539.603 664.238C547.971 653.457 565.246 659.375 565.246 673.023V688.282C565.246 698.913 556.763 707.562 546.197 707.829L545.692 707.836Z" stroke="white"/>
<path d="M22.0962 722.59H107.7C117.121 722.59 121.766 734.045 115.006 740.608C114.595 741.007 114.151 741.372 113.679 741.699L112.679 742.394C109.018 744.934 104.752 746.461 100.311 746.823L87.9009 747.836H66.2114C57.636 747.836 49.2258 750.197 41.9038 754.661C39.5433 756.1 37.3159 757.747 35.2466 759.58L30.1294 764.114C29.4186 764.743 28.7673 765.438 28.1851 766.188C19.8169 776.969 2.54248 771.051 2.54248 757.404V742.144C2.54248 731.513 11.0255 722.865 21.5913 722.597L22.0962 722.59Z" stroke="white"/>
<path d="M171.192 722.59H256.795C266.216 722.59 270.862 734.045 264.102 740.608C263.69 741.007 263.246 741.372 262.775 741.699L261.775 742.394C258.114 744.934 253.848 746.461 249.407 746.823L236.997 747.836H215.307C206.732 747.836 198.321 750.197 191 754.661C188.639 756.1 186.412 757.747 184.342 759.58L179.225 764.114C178.514 764.743 177.863 765.438 177.281 766.188C168.913 776.969 151.638 771.051 151.638 757.404V742.144C151.638 731.513 160.121 722.865 170.687 722.597L171.192 722.59Z" stroke="white"/>
<path d="M320.287 722.59H405.891C415.311 722.59 419.957 734.045 413.197 740.608C412.786 741.007 412.342 741.372 411.87 741.699L410.87 742.394C407.209 744.934 402.943 746.461 398.502 746.823L386.092 747.836H364.402C355.827 747.836 347.417 750.197 340.095 754.661C337.734 756.1 335.507 757.747 333.438 759.58L328.32 764.114C327.61 764.743 326.958 765.438 326.376 766.188C318.008 776.969 300.733 771.051 300.733 757.404V742.144C300.733 731.513 309.216 722.865 319.782 722.597L320.287 722.59Z" stroke="white"/>
<path d="M469.383 722.59H554.986C564.407 722.59 569.052 734.045 562.293 740.608C561.881 741.007 561.437 741.372 560.966 741.699L559.966 742.394C556.305 744.934 552.038 746.461 547.597 746.823L535.187 747.836H513.498C504.922 747.836 496.512 750.197 489.19 754.661C486.83 756.1 484.602 757.747 482.533 759.58L477.416 764.114C476.705 764.743 476.054 765.438 475.471 766.188C467.103 776.969 449.829 771.051 449.829 757.404V742.144C449.829 731.513 458.312 722.865 468.878 722.597L469.383 722.59Z" stroke="white"/>
</g>
</svg>
